<svg xmlns="http://www.w3.org/2000/svg" xmlns:xlink="http://www.w3.org/1999/xlink" width="500" zoomAndPan="magnify" viewBox="0 0 375 374.999991" height="500" preserveAspectRatio="xMidYMid meet" version="1.0"><defs><g/><clipPath id="98645d53e5"><path d="M 168 87.371094 L 207 87.371094 L 207 137 L 168 137 Z M 168 87.371094 " clip-rule="nonzero"/></clipPath><clipPath id="4c5aa28452"><path d="M 139.753906 112 L 235.003906 112 L 235.003906 218.621094 L 139.753906 218.621094 Z M 139.753906 112 " clip-rule="nonzero"/></clipPath><clipPath id="d0126de17f"><path d="M 193 209 L 202 209 L 202 212.640625 L 193 212.640625 Z M 193 209 " clip-rule="nonzero"/></clipPath><clipPath id="aa50cf5fd8"><path d="M 140 132 L 235.003906 132 L 235.003906 212.640625 L 140 212.640625 Z M 140 132 " clip-rule="nonzero"/></clipPath></defs><rect x="-37.5" width="450" fill="#ffffff" y="-37.499999" height="449.999989" fill-opacity="1"/><rect x="-37.5" width="450" fill="#000000" y="-37.499999" height="449.999989" fill-opacity="1"/><g clip-path="url(#98645d53e5)"><path fill="#ffffff" d="M 206.1875 106.304688 C 206.1875 103.828125 205.695312 101.40625 204.765625 99.171875 C 203.847656 96.929688 202.472656 94.867188 200.738281 93.121094 C 198.988281 91.371094 196.925781 90.011719 194.683594 89.082031 C 192.441406 88.15625 190.027344 87.660156 187.550781 87.660156 L 187.546875 87.660156 C 185.078125 87.660156 182.65625 88.15625 180.414062 89.082031 C 178.171875 90.011719 176.109375 91.371094 174.359375 93.121094 C 172.613281 94.867188 171.257812 96.929688 170.332031 99.171875 C 169.390625 101.40625 168.910156 103.828125 168.910156 106.304688 L 168.910156 134.308594 L 171.097656 136.496094 L 204 136.496094 L 206.1875 134.308594 Z M 204 106.304688 C 204 101.941406 202.273438 97.757812 199.183594 94.667969 C 196.09375 91.585938 191.914062 89.851562 187.550781 89.851562 L 187.546875 89.851562 C 183.183594 89.851562 179.003906 91.585938 175.914062 94.667969 C 172.832031 97.757812 171.097656 101.941406 171.097656 106.304688 L 171.097656 134.308594 L 204 134.308594 Z M 204 106.304688 " fill-opacity="1" fill-rule="evenodd"/></g><g clip-path="url(#4c5aa28452)"><path fill="#ffffff" d="M 224.335938 112.082031 L 150.765625 112.082031 C 146.691406 112.082031 143.347656 115.304688 143.207031 119.375 L 139.929688 211.101562 C 139.785156 215.085938 142.980469 218.394531 146.972656 218.394531 L 228.132812 218.394531 C 232.117188 218.394531 235.3125 215.085938 235.171875 211.101562 L 231.898438 119.375 C 231.75 115.304688 228.40625 112.082031 224.335938 112.082031 Z M 224.335938 112.082031 " fill-opacity="1" fill-rule="evenodd"/></g><g clip-path="url(#d0126de17f)"><path fill="#000000" d="M 195.074219 209.457031 L 200.269531 209.457031 C 201.089844 209.457031 201.757812 210.125 201.757812 210.941406 C 201.757812 211.757812 201.089844 212.425781 200.269531 212.425781 L 195.074219 212.425781 C 194.257812 212.425781 193.589844 211.757812 193.589844 210.941406 C 193.589844 210.125 194.257812 209.457031 195.074219 209.457031 Z M 195.074219 209.457031 " fill-opacity="1" fill-rule="nonzero"/></g><path fill="#000000" d="M 184.679688 203.523438 C 184.679688 202.707031 185.347656 202.039062 186.164062 202.039062 L 206.953125 202.039062 C 207.769531 202.039062 208.4375 202.707031 208.4375 203.523438 C 208.4375 204.339844 207.769531 205.007812 206.953125 205.007812 L 186.164062 205.007812 C 185.347656 205.007812 184.679688 204.339844 184.679688 203.523438 Z M 184.679688 203.523438 " fill-opacity="1" fill-rule="nonzero"/><path fill="#000000" d="M 212.890625 205.007812 C 212.074219 205.007812 211.40625 204.339844 211.40625 203.523438 C 211.40625 202.707031 212.074219 202.039062 212.890625 202.039062 L 216.605469 202.039062 C 217.421875 202.039062 218.089844 202.707031 218.089844 203.523438 C 218.089844 204.339844 217.421875 205.007812 216.605469 205.007812 Z M 212.890625 205.007812 " fill-opacity="1" fill-rule="nonzero"/><g clip-path="url(#aa50cf5fd8)"><path fill="#000000" d="M 234.050781 165.457031 C 231.972656 167.832031 228.1875 170.28125 223.359375 173.398438 C 220.316406 175.324219 216.902344 177.550781 213.484375 180.074219 C 212 181.1875 209.402344 182.597656 207.621094 183.265625 C 203.242188 184.972656 197.449219 187.867188 191.882812 194.914062 C 189.210938 198.253906 185.347656 200.183594 181.636719 202.039062 C 180.746094 202.484375 179.78125 202.929688 178.964844 203.375 L 178.742188 203.449219 C 175.476562 205.226562 170.945312 207.601562 166.046875 209.457031 L 189.136719 209.457031 C 189.953125 209.457031 190.621094 210.125 190.621094 210.941406 C 190.621094 211.757812 189.953125 212.425781 189.136719 212.425781 L 152.609375 212.425781 C 148.15625 212.425781 144.070312 211.015625 141.175781 207.304688 C 140.359375 206.265625 139.988281 204.710938 140.136719 203.078125 C 140.210938 202.558594 140.285156 201.964844 140.433594 201.445312 C 141.027344 199.589844 142.214844 198.253906 143.699219 197.734375 C 143.996094 197.585938 154.539062 192.6875 159.140625 181.484375 C 159.660156 179.257812 165.824219 153.660156 169.609375 147.351562 C 170.128906 146.535156 171.6875 145.273438 173.917969 145.71875 C 174.140625 145.71875 178.816406 146.609375 181.414062 149.726562 C 181.785156 150.171875 182.082031 150.765625 182.15625 151.359375 L 182.527344 153.214844 C 182.527344 153.289062 182.601562 153.289062 182.601562 153.289062 C 186.832031 153.511719 200.867188 153.363281 204.800781 141.417969 C 204.875 141.195312 204.949219 141.046875 204.949219 140.824219 C 205.023438 140.230469 205.023438 139.5625 204.875 138.820312 C 204.652344 137.855469 204.726562 136.890625 204.949219 136 C 205.171875 135.109375 205.691406 134.292969 206.285156 133.625 C 207.101562 132.808594 209.402344 131.101562 212.816406 133.402344 C 212.890625 133.402344 212.890625 133.476562 212.964844 133.550781 C 213.855469 134.144531 228.484375 146.832031 234.71875 160.410156 C 235.089844 161.226562 235.238281 162.117188 235.089844 163.007812 C 235.015625 163.898438 234.644531 164.714844 234.050781 165.457031 Z M 162.929688 179.183594 L 165.601562 179.777344 C 165.75 179.777344 165.824219 179.851562 165.972656 179.851562 C 166.640625 179.851562 167.234375 179.40625 167.382812 178.738281 C 167.605469 177.921875 167.085938 177.179688 166.269531 176.957031 L 163.671875 176.363281 C 163.375 177.402344 163.078125 178.367188 162.929688 179.183594 Z M 164.710938 172.136719 L 167.828125 172.730469 L 168.125 172.730469 C 168.792969 172.730469 169.460938 172.210938 169.609375 171.542969 C 169.757812 170.726562 169.238281 169.984375 168.421875 169.835938 L 165.527344 169.242188 C 165.230469 170.28125 164.933594 171.246094 164.710938 172.136719 Z M 170.128906 162.859375 L 167.457031 162.339844 C 167.160156 163.304688 166.9375 164.269531 166.640625 165.234375 L 169.609375 165.828125 L 169.90625 165.828125 C 170.574219 165.828125 171.242188 165.308594 171.390625 164.640625 C 171.464844 163.75 170.945312 163.007812 170.128906 162.859375 Z M 192.402344 166.71875 L 190.027344 167.832031 L 187.800781 166.496094 L 188.097656 169.167969 L 186.164062 170.949219 L 188.691406 171.46875 L 189.730469 173.917969 L 190.992188 171.542969 L 193.589844 171.320312 L 191.808594 169.390625 Z M 200.417969 160.410156 L 198.191406 159.078125 L 198.488281 161.746094 L 196.558594 163.527344 L 199.082031 164.046875 L 200.121094 166.496094 L 201.386719 164.121094 L 203.984375 163.898438 L 202.203125 161.96875 L 202.796875 159.375 Z M 222.839844 147.796875 C 221.132812 149.355469 217.125 152.398438 212.59375 152.398438 L 212.445312 152.398438 C 209.625 152.324219 206.953125 151.0625 204.503906 148.613281 C 203.835938 149.429688 203.167969 150.097656 202.425781 150.765625 C 205.394531 153.808594 208.734375 155.367188 212.445312 155.441406 L 212.667969 155.441406 C 218.164062 155.441406 222.691406 152.027344 224.769531 150.171875 C 224.101562 149.28125 223.433594 148.539062 222.839844 147.796875 Z M 228.558594 155.515625 C 226.328125 157.964844 221.875 161.003906 216.753906 164.566406 C 213.929688 166.570312 210.960938 168.574219 207.917969 170.875 C 206.953125 171.617188 205.246094 172.507812 204.207031 172.878906 C 199.082031 174.808594 192.476562 177.996094 186.164062 186.011719 C 183.863281 188.90625 180.300781 190.683594 176.8125 192.464844 C 175.847656 192.910156 174.882812 193.429688 173.992188 193.875 C 173.394531 194.171875 172.726562 194.542969 171.984375 194.988281 C 164.636719 198.996094 151.199219 206.265625 143.253906 202.632812 C 142.957031 203.746094 143.03125 205.007812 143.550781 205.597656 C 143.625 205.746094 143.773438 205.894531 143.921875 205.96875 C 145.332031 206.414062 146.820312 206.5625 148.378906 206.5625 C 156.839844 206.5625 166.863281 201.148438 173.394531 197.511719 C 174.140625 197.140625 174.734375 196.769531 175.402344 196.472656 C 176.292969 196.027344 177.183594 195.582031 178.148438 195.0625 C 181.933594 193.207031 185.792969 191.277344 188.542969 187.792969 C 194.40625 180.371094 200.566406 177.402344 205.320312 175.621094 C 206.65625 175.105469 208.585938 174.066406 209.773438 173.175781 C 212.742188 170.949219 215.714844 168.945312 218.535156 166.941406 C 223.359375 163.601562 227.664062 160.558594 230.265625 158.039062 C 229.671875 157.222656 229.152344 156.40625 228.558594 155.515625 Z M 228.558594 155.515625 " fill-opacity="1" fill-rule="nonzero"/></g><g fill="#ffffff" fill-opacity="1"><g transform="translate(68.935199, 259.660296)"><g><path d="M 10.328125 -5.3125 L 10.328125 -8.59375 C 10.328125 -9.125 10.023438 -9.390625 9.421875 -9.390625 L 5.953125 -9.390625 C 4.171875 -9.390625 2.910156 -9.78125 2.171875 -10.5625 C 1.441406 -11.34375 1.078125 -12.46875 1.078125 -13.9375 L 1.078125 -18.703125 C 1.078125 -21.691406 2.835938 -23.1875 6.359375 -23.1875 L 11.296875 -23.1875 C 14.816406 -23.1875 16.578125 -21.691406 16.578125 -18.703125 L 16.578125 -15.921875 L 10.25 -15.921875 L 10.25 -17.875 C 10.25 -18.40625 9.953125 -18.671875 9.359375 -18.671875 L 8.3125 -18.671875 C 7.707031 -18.671875 7.40625 -18.40625 7.40625 -17.875 L 7.40625 -14.4375 C 7.40625 -13.914062 7.707031 -13.65625 8.3125 -13.65625 L 11.703125 -13.65625 C 13.484375 -13.65625 14.75 -13.28125 15.5 -12.53125 C 16.257812 -11.78125 16.640625 -10.6875 16.640625 -9.25 L 16.640625 -4.484375 C 16.640625 -1.492188 14.882812 0 11.375 0 L 6.46875 0 C 2.925781 0 1.15625 -1.492188 1.15625 -4.484375 L 1.15625 -7.265625 L 7.46875 -7.265625 L 7.46875 -5.3125 C 7.46875 -4.78125 7.769531 -4.515625 8.375 -4.515625 L 9.421875 -4.515625 C 10.023438 -4.515625 10.328125 -4.78125 10.328125 -5.3125 Z M 10.328125 -5.3125 "/></g></g></g><g fill="#ffffff" fill-opacity="1"><g transform="translate(87.963028, 259.660296)"><g><path d="M 12.03125 -23.1875 L 17.796875 -23.1875 L 17.796875 0 L 12.390625 0 L 7.21875 -12.171875 L 7.21875 0 L 1.4375 0 L 1.4375 -23.1875 L 6.859375 -23.1875 L 12.03125 -10.796875 Z M 12.03125 -23.1875 "/></g></g></g><g fill="#ffffff" fill-opacity="1"><g transform="translate(108.50729, 259.660296)"><g><path d="M 7.765625 -4.515625 L 15.671875 -4.515625 L 15.671875 0 L 1.4375 0 L 1.4375 -23.1875 L 15.34375 -23.1875 L 15.34375 -18.671875 L 7.765625 -18.671875 L 7.765625 -13.9375 L 14.296875 -13.9375 L 14.296875 -9.421875 L 7.765625 -9.421875 Z M 7.765625 -4.515625 "/></g></g></g><g fill="#ffffff" fill-opacity="1"><g transform="translate(126.018697, 259.660296)"><g><path d="M 13.25 0 L 12.53125 -3.46875 L 6.96875 -3.46875 L 6.203125 0 L 0 0 L 5.953125 -23.1875 L 13.65625 -23.1875 L 19.609375 0 Z M 7.9375 -7.9375 L 11.5625 -7.9375 L 9.78125 -16.28125 Z M 7.9375 -7.9375 "/></g></g></g><g fill="#ffffff" fill-opacity="1"><g transform="translate(146.924007, 259.660296)"><g><path d="M 14.375 -11.84375 L 18.921875 0 L 12.125 0 L 7.796875 -11.84375 L 12.09375 -23.1875 L 18.890625 -23.1875 Z M 1.4375 0 L 1.4375 -23.1875 L 7.765625 -23.1875 L 7.765625 0 Z M 1.4375 0 "/></g></g></g><g fill="#ffffff" fill-opacity="1"><g transform="translate(167.359955, 259.660296)"><g><path d="M 7.765625 -4.515625 L 15.671875 -4.515625 L 15.671875 0 L 1.4375 0 L 1.4375 -23.1875 L 15.34375 -23.1875 L 15.34375 -18.671875 L 7.765625 -18.671875 L 7.765625 -13.9375 L 14.296875 -13.9375 L 14.296875 -9.421875 L 7.765625 -9.421875 Z M 7.765625 -4.515625 "/></g></g></g><g fill="#ffffff" fill-opacity="1"><g transform="translate(184.87136, 259.660296)"><g><path d="M 7.765625 -8.234375 L 7.765625 0 L 1.4375 0 L 1.4375 -23.1875 L 12.171875 -23.1875 C 15.710938 -23.1875 17.484375 -21.691406 17.484375 -18.703125 L 17.484375 -12.703125 C 17.484375 -10.421875 16.445312 -9.015625 14.375 -8.484375 L 18.625 0 L 11.84375 0 L 8.15625 -8.234375 Z M 10.25 -18.671875 L 7.765625 -18.671875 L 7.765625 -12.53125 L 10.25 -12.53125 C 10.851562 -12.53125 11.15625 -12.796875 11.15625 -13.328125 L 11.15625 -17.875 C 11.15625 -18.40625 10.851562 -18.671875 10.25 -18.671875 Z M 10.25 -18.671875 "/></g></g></g><g fill="#ffffff" fill-opacity="1"><g transform="translate(204.729615, 259.660296)"><g/></g></g><g fill="#ffffff" fill-opacity="1"><g transform="translate(213.250783, 259.660296)"><g><path d="M 1.8125 -23.1875 L 12.453125 -23.1875 C 15.992188 -23.1875 17.765625 -21.691406 17.765625 -18.703125 L 17.765625 -4.484375 C 17.765625 -1.492188 15.992188 0 12.453125 0 L 1.8125 0 Z M 11.453125 -4.953125 L 11.453125 -18.234375 C 11.453125 -18.765625 11.148438 -19.03125 10.546875 -19.03125 L 8.125 -19.03125 L 8.125 -4.15625 L 10.546875 -4.15625 C 11.148438 -4.15625 11.453125 -4.421875 11.453125 -4.953125 Z M 11.453125 -4.953125 "/></g></g></g><g fill="#ffffff" fill-opacity="1"><g transform="translate(233.650619, 259.660296)"><g><path d="M 7.765625 -4.515625 L 15.671875 -4.515625 L 15.671875 0 L 1.4375 0 L 1.4375 -23.1875 L 15.34375 -23.1875 L 15.34375 -18.671875 L 7.765625 -18.671875 L 7.765625 -13.9375 L 14.296875 -13.9375 L 14.296875 -9.421875 L 7.765625 -9.421875 Z M 7.765625 -4.515625 "/></g></g></g><g fill="#ffffff" fill-opacity="1"><g transform="translate(251.162023, 259.660296)"><g><path d="M 13.25 0 L 12.53125 -3.46875 L 6.96875 -3.46875 L 6.203125 0 L 0 0 L 5.953125 -23.1875 L 13.65625 -23.1875 L 19.609375 0 Z M 7.9375 -7.9375 L 11.5625 -7.9375 L 9.78125 -16.28125 Z M 7.9375 -7.9375 "/></g></g></g><g fill="#ffffff" fill-opacity="1"><g transform="translate(272.067334, 259.660296)"><g><path d="M 7.765625 -4.515625 L 14.953125 -4.515625 L 14.953125 0 L 1.4375 0 L 1.4375 -23.1875 L 7.765625 -23.1875 Z M 7.765625 -4.515625 "/></g></g></g><g fill="#ffffff" fill-opacity="1"><g transform="translate(288.315059, 259.660296)"><g><path d="M 10.328125 -5.3125 L 10.328125 -8.59375 C 10.328125 -9.125 10.023438 -9.390625 9.421875 -9.390625 L 5.953125 -9.390625 C 4.171875 -9.390625 2.910156 -9.78125 2.171875 -10.5625 C 1.441406 -11.34375 1.078125 -12.46875 1.078125 -13.9375 L 1.078125 -18.703125 C 1.078125 -21.691406 2.835938 -23.1875 6.359375 -23.1875 L 11.296875 -23.1875 C 14.816406 -23.1875 16.578125 -21.691406 16.578125 -18.703125 L 16.578125 -15.921875 L 10.25 -15.921875 L 10.25 -17.875 C 10.25 -18.40625 9.953125 -18.671875 9.359375 -18.671875 L 8.3125 -18.671875 C 7.707031 -18.671875 7.40625 -18.40625 7.40625 -17.875 L 7.40625 -14.4375 C 7.40625 -13.914062 7.707031 -13.65625 8.3125 -13.65625 L 11.703125 -13.65625 C 13.484375 -13.65625 14.75 -13.28125 15.5 -12.53125 C 16.257812 -11.78125 16.640625 -10.6875 16.640625 -9.25 L 16.640625 -4.484375 C 16.640625 -1.492188 14.882812 0 11.375 0 L 6.46875 0 C 2.925781 0 1.15625 -1.492188 1.15625 -4.484375 L 1.15625 -7.265625 L 7.46875 -7.265625 L 7.46875 -5.3125 C 7.46875 -4.78125 7.769531 -4.515625 8.375 -4.515625 L 9.421875 -4.515625 C 10.023438 -4.515625 10.328125 -4.78125 10.328125 -5.3125 Z M 10.328125 -5.3125 "/></g></g></g><g fill="#ffffff" fill-opacity="1"><g transform="translate(126.235448, 283.314416)"><g><path d="M 5.976562 -4.925781 C 6.835938 -5.3125 7.402344 -6.089844 7.402344 -7.128906 C 7.402344 -8.652344 6.203125 -9.71875 4.714844 -9.71875 L 1.183594 -9.71875 L 1.183594 0 L 5.054688 0 C 6.527344 0 7.710938 -1.054688 7.710938 -2.558594 C 7.710938 -3.742188 7 -4.585938 5.976562 -4.925781 Z M 6.367188 -7.046875 C 6.367188 -6.089844 5.574219 -5.363281 4.601562 -5.363281 L 2.203125 -5.363281 L 2.203125 -8.683594 L 4.601562 -8.683594 C 5.574219 -8.683594 6.367188 -8.003906 6.367188 -7.046875 Z M 4.925781 -1.035156 L 2.203125 -1.035156 L 2.203125 -4.359375 L 4.925781 -4.359375 C 5.878906 -4.359375 6.675781 -3.628906 6.675781 -2.671875 C 6.675781 -1.71875 5.878906 -1.035156 4.925781 -1.035156 Z M 4.925781 -1.035156 "/></g></g></g><g fill="#ffffff" fill-opacity="1"><g transform="translate(137.916153, 283.314416)"><g><path d="M 6.578125 -8.714844 L 6.578125 -9.71875 L 1.261719 -9.71875 L 1.261719 0 L 6.578125 0 L 6.578125 -1.003906 L 2.300781 -1.003906 L 2.300781 -4.359375 L 6.027344 -4.359375 L 6.027344 -5.363281 L 2.300781 -5.363281 L 2.300781 -8.714844 Z M 6.578125 -8.714844 "/></g></g></g><g fill="#ffffff" fill-opacity="1"><g transform="translate(148.674224, 283.314416)"><g><path d="M 3.628906 0.128906 C 5.28125 0.128906 6.625 -0.859375 6.625 -2.558594 C 6.625 -5.863281 1.894531 -5.054688 1.894531 -7.371094 C 1.894531 -8.34375 2.6875 -8.8125 3.597656 -8.8125 C 4.339844 -8.8125 4.957031 -8.503906 5.347656 -7.953125 L 6.15625 -8.632812 C 5.621094 -9.316406 4.683594 -9.847656 3.5625 -9.847656 C 2.074219 -9.847656 0.859375 -8.878906 0.859375 -7.289062 C 0.859375 -4.164062 5.589844 -4.941406 5.589844 -2.527344 C 5.589844 -1.492188 4.730469 -0.90625 3.644531 -0.90625 C 2.542969 -0.90625 1.75 -1.507812 1.410156 -2.398438 L 0.46875 -1.847656 C 0.972656 -0.648438 2.1875 0.128906 3.628906 0.128906 Z M 3.628906 0.128906 "/></g></g></g><g fill="#ffffff" fill-opacity="1"><g transform="translate(158.979076, 283.314416)"><g><path d="M 6.5625 -9.71875 L 0.144531 -9.71875 L 0.144531 -8.683594 L 2.835938 -8.683594 L 2.835938 0 L 3.871094 0 L 3.871094 -8.683594 L 6.5625 -8.683594 Z M 6.5625 -9.71875 "/></g></g></g><g fill="#ffffff" fill-opacity="1"><g transform="translate(168.895443, 283.314416)"><g/></g></g><g fill="#ffffff" fill-opacity="1"><g transform="translate(176.011534, 283.314416)"><g><path d="M 11.144531 -0.972656 L 9.6875 -0.972656 L 8.261719 -0.519531 C 9.769531 -1.378906 10.773438 -2.996094 10.773438 -4.859375 C 10.773438 -7.613281 8.554688 -9.847656 5.785156 -9.847656 C 3.03125 -9.847656 0.792969 -7.613281 0.792969 -4.859375 C 0.792969 -2.105469 3.03125 0.128906 5.785156 0.128906 C 6.171875 0.128906 6.5625 0.0820312 6.917969 0 L 11.144531 0 Z M 1.832031 -4.859375 C 1.832031 -7.0625 3.597656 -8.8125 5.785156 -8.8125 C 7.988281 -8.8125 9.734375 -7.0625 9.734375 -4.859375 C 9.734375 -2.65625 7.988281 -0.90625 5.785156 -0.90625 C 3.597656 -0.90625 1.832031 -2.65625 1.832031 -4.859375 Z M 1.832031 -4.859375 "/></g></g></g><g fill="#ffffff" fill-opacity="1"><g transform="translate(190.864814, 283.314416)"><g><path d="M 4.777344 0.128906 C 6.902344 0.128906 8.441406 -1.28125 8.441406 -3.191406 L 8.441406 -9.71875 L 7.402344 -9.71875 L 7.402344 -3.351562 C 7.402344 -1.945312 6.285156 -0.90625 4.777344 -0.90625 C 3.273438 -0.90625 2.171875 -1.945312 2.171875 -3.351562 L 2.171875 -9.71875 L 1.132812 -9.71875 L 1.132812 -3.191406 C 1.132812 -1.28125 2.671875 0.128906 4.777344 0.128906 Z M 4.777344 0.128906 "/></g></g></g><g fill="#ffffff" fill-opacity="1"><g transform="translate(203.64621, 283.314416)"><g><path d="M 7.046875 0 L 8.179688 0 L 4.664062 -9.71875 L 3.515625 -9.71875 L 0 0 L 1.132812 0 L 1.929688 -2.269531 L 6.253906 -2.269531 Z M 2.269531 -3.257812 L 4.097656 -8.488281 L 5.914062 -3.257812 Z M 2.269531 -3.257812 "/></g></g></g><g fill="#ffffff" fill-opacity="1"><g transform="translate(215.035558, 283.314416)"><g><path d="M 2.21875 -1.035156 L 2.21875 -9.71875 L 1.183594 -9.71875 L 1.183594 0 L 5.832031 0 L 5.832031 -1.035156 Z M 2.21875 -1.035156 "/></g></g></g><g fill="#ffffff" fill-opacity="1"><g transform="translate(224.223532, 283.314416)"><g><path d="M 1.261719 0 L 2.300781 0 L 2.300781 -9.71875 L 1.261719 -9.71875 Z M 1.261719 0 "/></g></g></g><g fill="#ffffff" fill-opacity="1"><g transform="translate(230.983522, 283.314416)"><g><path d="M 6.5625 -9.71875 L 0.144531 -9.71875 L 0.144531 -8.683594 L 2.835938 -8.683594 L 2.835938 0 L 3.871094 0 L 3.871094 -8.683594 L 6.5625 -8.683594 Z M 6.5625 -9.71875 "/></g></g></g><g fill="#ffffff" fill-opacity="1"><g transform="translate(240.899896, 283.314416)"><g><path d="M 7.839844 -9.71875 L 6.5625 -9.71875 L 3.9375 -5.6875 L 1.3125 -9.71875 L 0.015625 -9.71875 L 3.417969 -4.601562 L 3.417969 0 L 4.453125 0 L 4.453125 -4.617188 Z M 7.839844 -9.71875 "/></g></g></g></svg>